# xmcd
#
# Track frame offsets: 
#        150
#        6403
#        61342
#        66708
#        112420
#        120921
#        163354
#        167194
#        210564
#        211368
#        237306
#        249522
#
# Disc length: 3597 seconds
#
# Revision: 3
# Processed by: cddbd v1.5.2PL0 Copyright (c) Steve Scherf et al.
# Submitted via: ExactAudioCopy v0.99pb5
#
DISCID=b90e0b0c
DTITLE=NRD - Sport i Religia
DYEAR=1998
DGENRE=Yass'n'Core
TTITLE0=Konferansjerka 1
TTITLE1=Drobiazgi Zyciowe (Mazzoll)
TTITLE2=Konferansjerka 2
TTITLE3=Swiat wg Fogga (Trzaska)
TTITLE4=Konferansjerka 3
TTITLE5=Ku-Ku, Zla Krew (Tymanski)
TTITLE6=Konferansjerka 4
TTITLE7=Ballada o Jedwabiu (Trzaska)
TTITLE8=Konferansjerka 5
TTITLE9=Ojczyzna Nasza Dobroc, Dobroc, Dobroc (Mazzoll)
TTITLE10=Konferansjerka 6
TTITLE11=O Miro! (Tymanski)
EXTD=YEAR: 1996
EXTT0=
EXTT1=
EXTT2=
EXTT3=
EXTT4=
EXTT5=
EXTT6=
EXTT7=
EXTT8=
EXTT9=
EXTT10=
EXTT11=
PLAYORDER=
